<?xml version="1.0" encoding="utf-8"?>
<!-- Generator: Adobe Illustrator 21.1.0, SVG Export Plug-In . SVG Version: 6.00 Build 0)  -->
<svg version="1.1" id="Icons" xmlns="http://www.w3.org/2000/svg" xmlns:xlink="http://www.w3.org/1999/xlink" x="0px" y="0px"
	 viewBox="0 0 48 48" style="enable-background:new 0 0 48 48;" xml:space="preserve">
<style type="text/css">
	.st0{fill:#FFFFFF;}
	.st1{fill:#F0F0F0;}
	.st2{fill:none;stroke:#45413C;stroke-linecap:round;stroke-linejoin:round;stroke-miterlimit:10;}
	.st3{fill:#FF6242;}
	.st4{fill:#FF866E;}
	.st5{fill:#FFE500;stroke:#45413C;stroke-linecap:round;stroke-linejoin:round;stroke-miterlimit:10;}
	.st6{opacity:0.15;fill:#45413C;}
	.st7{fill:#45413C;stroke:#45413C;stroke-linecap:round;stroke-linejoin:round;stroke-miterlimit:10;}
	.st8{fill:#FFAA54;}
	.st9{fill:#E0E0E0;}
	.st10{fill:#FFCEBF;stroke:#45413C;stroke-linecap:round;stroke-linejoin:round;stroke-miterlimit:10;}
	.st11{fill:#FFB59E;}
	.st12{fill:#724F3D;}
	.st13{fill:#A86C4D;}
	.st14{fill:#FFE500;}
	.st15{fill:#EBCB00;}
	.st16{fill:#FFA694;}
	.st17{fill:#FFFFFF;stroke:#45413C;stroke-linecap:round;stroke-linejoin:round;stroke-miterlimit:10;}
	.st18{fill:#DE926A;}
	.st19{fill:#FFCEBF;}
	.st20{fill:#656769;}
	.st21{fill:#525252;}
	.st22{fill:#656769;stroke:#45413C;stroke-linecap:round;stroke-linejoin:round;stroke-miterlimit:10;}
	.st23{fill:#45413C;}
	.st24{fill:#009FD9;stroke:#45413C;stroke-linecap:round;stroke-linejoin:round;stroke-miterlimit:10;}
	.st25{fill:#A86C4D;stroke:#45413C;stroke-linecap:round;stroke-linejoin:round;stroke-miterlimit:10;}
	.st26{fill:#614B44;stroke:#45413C;stroke-linecap:round;stroke-linejoin:round;stroke-miterlimit:10;}
	.st27{fill:#FF6242;stroke:#45413C;stroke-linecap:round;stroke-linejoin:round;stroke-miterlimit:10;}
	.st28{fill:#9CEB60;stroke:#45413C;stroke-linecap:round;stroke-linejoin:round;stroke-miterlimit:10;}
	.st29{fill:#9F5AE5;}
	.st30{fill:#BF8DF2;}
	.st31{fill:#FFDCD1;}
	.st32{fill:#FFF48C;}
	.st33{fill:#E5FEFF;}
	.st34{fill:#00DFEB;}
	.st35{fill:#A6FBFF;}
	.st36{fill:#FF87AF;}
	.st37{fill:#FF6196;}
	.st38{fill:#EBCB00;stroke:#45413C;stroke-linecap:round;stroke-linejoin:round;stroke-miterlimit:10;}
	.st39{fill:#00B8F0;}
	.st40{fill:#009FD9;}
	.st41{fill:#4ACFFF;}
	.st42{fill:#FFB59E;stroke:#45413C;stroke-linecap:round;stroke-linejoin:round;stroke-miterlimit:10;}
	.st43{fill:#FFB0CA;}
	.st44{fill:#FF87AF;stroke:#45413C;stroke-linecap:round;stroke-linejoin:round;stroke-miterlimit:10;}
	.st45{fill:#00B8F0;stroke:#45413C;stroke-linecap:round;stroke-linejoin:round;stroke-miterlimit:10;}
	.st46{fill:#FF866E;stroke:#45413C;stroke-linecap:round;stroke-linejoin:round;stroke-miterlimit:10;}
	.st47{fill:#DAEDF7;stroke:#45413C;stroke-linecap:round;stroke-linejoin:round;stroke-miterlimit:10;}
	.st48{fill:#DABFF5;}
	.st49{fill:#C0DCEB;}
	.st50{fill:#ADC4D9;}
	.st51{fill:#E04122;stroke:#45413C;stroke-linecap:round;stroke-linejoin:round;stroke-miterlimit:10;}
	.st52{fill:#BF8256;}
	.st53{fill:#DEA47A;}
	.st54{fill:#87898C;}
	.st55{fill:#BDBEC0;stroke:#45413C;stroke-linecap:round;stroke-linejoin:round;stroke-miterlimit:10;}
	.st56{fill:#8CA4B8;}
	.st57{fill:#FFC44D;}
	.st58{fill:#FFDB94;}
	.st59{fill:#FFC44D;stroke:#45413C;stroke-linecap:round;stroke-linejoin:round;stroke-miterlimit:10;}
	.st60{fill:#E04122;}
	.st61{fill:#724F3D;stroke:#45413C;stroke-linecap:round;stroke-linejoin:round;stroke-miterlimit:10;}
	.st62{fill:#915E3A;}
	.st63{fill:#FF8A14;}
	.st64{fill:none;stroke:#45413C;stroke-linecap:round;stroke-miterlimit:10;}
	.st65{fill:#00F5BC;}
	.st66{fill:#00DBA8;}
	.st67{fill:#627B8C;}
</style>
<g id="XMLID_18343_">
	<path id="XMLID_18367_" class="st61" d="M19.6,7.3c0,1.9-1.2,4.6-4.4,4.7c-3.2,0.2-5-2-5-2s1.2,8.2,7.8,8.2c6.1,0,9.9-4,9.9-10.9
		L19.6,7.3z"/>
	<ellipse id="XMLID_18366_" class="st6" cx="24" cy="45.7" rx="19" ry="2"/>
	<path class="st5" d="M18.9,13.3c-2.8,0-5,2.3-5,5v4.2c0,0.9,0.7,1.6,1.6,1.6c0.9,0,1.6-0.7,1.6-1.6v-3.1c0-1.6,1.3-2.9,2.9-2.9h0.3
		L18.9,13.3z"/>
	<path class="st5" d="M32.7,5.7c-0.9,0-1.6,0.7-1.6,1.6v3.9c0,1.2-1,2.1-2.1,2.1h-3.3l1.3,3.2h2.2c2.8,0,5.1-2.3,5.1-5.1V7.3
		C34.2,6.4,33.5,5.7,32.7,5.7z"/>
	<circle id="XMLID_18365_" class="st14" cx="23.8" cy="7.3" r="4.1"/>
	<path id="XMLID_18364_" class="st32" d="M23.8,5.7c1.8,0,3.4,1.2,3.9,2.8c0.1-0.4,0.2-0.8,0.2-1.3c0-2.3-1.8-4.1-4.1-4.1
		S19.6,5,19.6,7.3c0,0.4,0.1,0.9,0.2,1.3C20.4,6.9,21.9,5.7,23.8,5.7z"/>
	<circle id="XMLID_18363_" class="st2" cx="23.8" cy="7.3" r="4.1"/>
	<path id="XMLID_18362_" class="st3" d="M42.4,25.1c0,0,1.7,9.2-5.8,14.7S23,43.6,23,43.6l-1.2-9.5l7.3-6.9L42.4,25.1z"/>
	<path id="XMLID_18361_" class="st60" d="M29.1,33L42.2,31c0.7-3.3,0.2-5.9,0.2-5.9l-13.3,2.1l-7.3,6.9l0.7,5.2L29.1,33z"/>
	<path id="XMLID_18360_" class="st2" d="M42.4,25.1c0,0,1.7,9.2-5.8,14.7S23,43.6,23,43.6l-1.2-9.5l7.3-6.9L42.4,25.1z"/>
	<path id="XMLID_18359_" class="st14" d="M31.6,29.3L29,28.2l-3.2,3.1l3.1,1.2c0.6,0.2,1,0.8,1.1,1.4l0.5,7.6h3.8l-0.6-9
		C33.7,31.1,32.8,29.9,31.6,29.3z"/>
	<path id="XMLID_18358_" class="st15" d="M31.6,29.3L29,28.2l-3.2,3.1l3.1,1.2c0.6,0.2,1,0.8,1.1,1.4l0,0.5c1.2-1.1,2.5-1.9,3.6-2.3
		C33.5,30.8,32.7,29.8,31.6,29.3z"/>
	<path id="XMLID_18357_" class="st2" d="M31.6,29.3L29,28.2l-3.2,3.1l3.1,1.2c0.6,0.2,1,0.8,1.1,1.4l0.5,7.6h3.8l-0.6-9
		C33.7,31.1,32.8,29.9,31.6,29.3z"/>
	<path id="XMLID_18356_" class="st51" d="M34.4,41.5l2.1,2.5c0.3,0.4,0,1-0.5,1l-1.3,0l-2.2-0.9L32.2,45l-1.3,0
		c-0.4,0-0.8-0.4-0.7-0.8l0.4-2.7H34.4z"/>
	<path id="XMLID_18355_" class="st51" d="M24.9,41.5L27,44c0.3,0.4,0,1-0.5,1l-1.3,0L23,44.1L22.7,45l-1.3,0c-0.4,0-0.8-0.4-0.7-0.8
		l0.4-2.7H24.9z"/>
	<path id="XMLID_18354_" class="st12" d="M23.8,3.2c-2.3,0-4.1,1.8-4.1,4.1c0,0.6,0.1,1.2,0.4,1.8c0.6,0,2.2-0.3,3.8-1.8
		c1.5-1.5,1.8-3.1,1.9-3.7C25.1,3.3,24.5,3.2,23.8,3.2z"/>
	<path id="XMLID_18353_" class="st13" d="M23.8,5.2c0.5,0,1,0.1,1.4,0.3c0.4-0.8,0.5-1.4,0.5-1.8c-0.6-0.3-1.3-0.5-2-0.5
		c-2.3,0-4.1,1.8-4.1,4.1c0,0.3,0,0.7,0.1,1C20.2,6.5,21.8,5.2,23.8,5.2z"/>
	<path id="XMLID_18352_" class="st2" d="M23.8,3.2c-2.3,0-4.1,1.8-4.1,4.1c0,0.6,0.1,1.2,0.4,1.8c0.6,0,2.2-0.3,3.8-1.8
		c1.5-1.5,1.8-3.1,1.9-3.7C25.1,3.3,24.5,3.2,23.8,3.2z"/>
	<path id="XMLID_18351_" class="st3" d="M21.3,23.2c0,0-2.3,1.4-3.5,4.3c-1.1,2.9-2.9,7.2-6.8,9.5c-2.8,1.7-4.4,4.3-5.1,6.2
		C5.6,44.1,6.3,45,7.2,45h12c2.9,0,5.8-1.8,6.9-8.3c1.1-6.4,6.3-8.2,10.2-8.2s6.1-3.5,6.1-3.5s-4.5,0.6-9.2,0.1s-5.7-2-5.7-2H21.3z"
		/>
	<g id="XMLID_18349_">
		<path id="XMLID_18350_" class="st4" d="M26.6,29.1c1.8,0.1,3.5,0.2,5.2,0.2c1.5-0.6,3.1-0.8,4.5-0.8c3.9,0,6.1-3.5,6.1-3.5
			s-4.5,0.6-9.2,0.1c-4.7-0.6-5.7-2-5.7-2h-6.2c0,0-2.3,1.4-3.5,4.3c0,0,0,0.1-0.1,0.1C19,28.1,21.5,28.8,26.6,29.1z"/>
	</g>
	<path id="XMLID_18348_" class="st2" d="M21.3,23.2c0,0-2.3,1.4-3.5,4.3c-1.1,2.9-2.9,7.2-6.8,9.5c-2.8,1.7-4.4,4.3-5.1,6.2
		C5.6,44.1,6.3,45,7.2,45h12c2.9,0,5.8-1.8,6.9-8.3c1.1-6.4,6.3-8.2,10.2-8.2s6.1-3.5,6.1-3.5s-4.5,0.6-9.2,0.1s-5.7-2-5.7-2H21.3z"
		/>
	<path id="XMLID_18347_" class="st3" d="M27.5,23.2h-6.2l-2.4-9.8h6.4c1.3,0,2.3,1,2.3,2.3V23.2z"/>
	<path id="XMLID_18346_" class="st4" d="M25.3,13.3h-6.4l0.6,2.5h5.8c1.3,0,2.3,1,2.3,2.3v-2.5C27.5,14.3,26.5,13.3,25.3,13.3z"/>
	<path id="XMLID_18345_" class="st2" d="M27.5,23.2h-6.2l-2.4-9.8h6.4c1.3,0,2.3,1,2.3,2.3V23.2z"/>
	<path id="XMLID_18344_" class="st5" d="M21.8,13.3c0,0,0.4,3,2.5,3s0.9-3,0.9-3H21.8z"/>
</g>
</svg>
